#!OML:ASF F:\VICON\USERDATA\INSTALL\rory3\rory3.ASF
:FULLY-SPECIFIED
:DEGREES
2054
root 0.751231 16.6272 -0.146555 -7.55906 -3.79679 2.87708
lowerback 1.10601 -0.325966 0.247547
upperback 3.2154 -0.595289 6.76184
thorax 2.77783 -0.397757 6.90498
lowerneck -10.215 -10.8747 -18.3592
upperneck 32.3167 -15.6408 10.8376
head 15.5076 -7.731 4.89474
rclavicle 9.30561e-015 4.45278e-014
rhumerus 16.8132 3.93186 -34.9079
rradius 74.5459
rwrist 21.0527
rhand 13.3528 23.1196
rfingers 7.12502
rthumb 38.2989 -2.59766
lclavicle 9.30561e-015 4.45278e-014
lhumerus 55.3081 18.6589 16.2612
lradius 71.3885
lwrist 12.991
lhand 20.7362 24.9303
lfingers 7.12502
lthumb 45.2203 48.3426
rfemur -5.10312 3.48421 12.0843
rtibia 37.1304
rfoot -28.2817 -1.89094
rtoes -21.5333
lfemur -2.81303 -3.82106 -24.3951
ltibia 35.9499
lfoot -24.1638 2.28291
ltoes -12.2302
2055
root 0.750796 16.6216 -0.147417 -7.66703 -3.4062 2.97875
lowerback 1.08611 -0.345813 0.348052
upperback 3.21611 -0.624168 6.82504
thorax 2.79323 -0.41063 6.91455
lowerneck -10.3562 -10.8434 -18.2482
upperneck 32.5888 -15.5293 10.5757
head 15.6066 -7.69403 4.78951
rclavicle -8.84592e-015 -2.54444e-014
rhumerus 16.7926 4.11898 -34.9466
rradius 74.5954
rwrist 21.2176
rhand 13.3332 23.2079
rfingers 7.12502
rthumb 38.2805 -2.5145
lclavicle -8.84592e-015 -2.54444e-014
lhumerus 55.1706 18.5724 16.3216
lradius 71.4467
lwrist 13.2034
lhand 20.816 24.8734
lfingers 7.12502
lthumb 45.2945 48.256
rfemur -4.92412 3.40134 11.9769
rtibia 37.226
rfoot -28.3554 -2.08785
rtoes -21.2475
lfemur -2.73246 -3.90753 -24.5023
ltibia 35.9547
lfoot -24.0012 2.02984
ltoes -12.1062
2056
root 0.750577 16.6149 -0.148976 -7.77814 -3.04589 3.0912
lowerback 1.13334 -0.328327 0.46563
upperback 3.17427 -0.595886 6.83033
thorax 2.7182 -0.391194 6.85221
lowerneck -10.6453 -10.8251 -17.9909
upperneck 33.1837 -15.4459 10.1913
head 15.8751 -7.66192 4.60428
rclavicle -7.47927e-015 -3.49861e-014
rhumerus 16.6331 4.30233 -34.9856
rradius 74.7646
rwrist 21.353
rhand 13.085 23.2694
rfingers 7.12502
rthumb 38.0461 -2.51728
lclavicle -7.47927e-015 -3.49861e-014
lhumerus 55.175 18.4006 16.4787
lradius 71.5859
lwrist 13.5094
lhand 21.0222 24.9472
lfingers 7.12502
lthumb 45.4861 48.2526
rfemur -4.75954 3.3989 11.8767
rtibia 37.3141
rfoot -28.4065 -2.35798
rtoes -21.2764
lfemur -2.70731 -3.98993 -24.6206
ltibia 35.9837
lfoot -23.9032 1.91456
ltoes -12.6898
2057
root 0.752819 16.6088 -0.14593 -7.93992 -2.69773 3.23048
lowerback 1.15172 -0.297523 0.620073
upperback 3.157 -0.551549 6.78836
thorax 2.68204 -0.362977 6.71816
lowerneck -10.5904 -10.7983 -17.9494
upperneck 33.3221 -15.4718 10.2719
head 15.9408 -7.66011 4.63632
rclavicle 2.25124e-014 -5.725e-014
rhumerus 16.4648 4.42729 -35.0083
rradius 74.894
rwrist 21.42
rhand 12.9553 23.2777
rfingers 7.12502
rthumb 37.9237 -2.54222
lclavicle 2.25124e-014 -5.725e-014
lhumerus 55.1618 18.1552 16.6141
lradius 71.8182
lwrist 13.7605
lhand 20.9251 25.1599
lfingers 7.12502
lthumb 45.3959 48.5018
rfemur -4.50799 3.3245 11.7118
rtibia 37.382
rfoot -28.4844 -2.52572
rtoes -21.2138
lfemur -2.61317 -4.02449 -24.7853
ltibia 36.0292
lfoot -23.9542 1.84627
ltoes -13.9234
2058
root 0.753138 16.6056 -0.146978 -8.05486 -2.33002 3.23683
lowerback 1.13246 -0.299593 0.827661
upperback 3.16052 -0.555954 6.80079
thorax 2.69493 -0.359894 6.61171
lowerneck -10.5238 -10.7871 -17.8426
upperneck 33.295 -15.5275 10.3775
head 15.9222 -7.65886 4.65755
rclavicle 1.28713e-014 -4.13472e-014
rhumerus 16.5245 4.46726 -35.0377
rradius 74.8431
rwrist 21.5094
rhand 12.8966 23.4337
rfingers 7.12502
rthumb 37.8682 -2.40123
lclavicle 1.28713e-014 -4.13472e-014
lhumerus 55.0982 17.9565 16.7687
lradius 71.9843
lwrist 13.8902
lhand 20.8653 25.1611
lfingers 7.12502
lthumb 45.3403 48.5253
rfemur -4.29082 3.24176 11.7144
rtibia 37.421
rfoot -28.5651 -2.78283
rtoes -21.3338
lfemur -2.54944 -4.07635 -24.7822
ltibia 36.0773
lfoot -23.9516 1.41623
ltoes -13.2013
2059
root 0.750903 16.6017 -0.150424 -8.10327 -1.8414 3.23993
lowerback 1.04587 -0.342153 0.925721
upperback 3.15061 -0.617223 6.8434
thorax 2.7399 -0.388874 6.59998
lowerneck -10.5796 -10.7527 -17.5963
upperneck 33.418 -15.5119 10.3034
head 15.9548 -7.62664 4.59176
rclavicle 4.02539e-015 -6.36111e-015
rhumerus 16.6716 4.51211 -34.9727
rradius 74.8065
rwrist 21.5646
rhand 12.9556 23.3715
rfingers 7.12502
rthumb 37.9239 -2.44837
lclavicle 4.02539e-015 -6.36111e-015
lhumerus 55.0914 17.792 16.9563
lradius 72.0312
lwrist 13.9023
lhand 20.9655 25.2745
lfingers 7.12502
lthumb 45.4334 48.6013
rfemur -4.11258 3.06346 11.7151
rtibia 37.4442
rfoot -28.5847 -3.0821
rtoes -21.0646
lfemur -2.56626 -4.16851 -24.763
ltibia 36.1409
lfoot -23.8572 0.983811
ltoes -12.6673
2060
root 0.7488 16.5973 -0.153572 -8.23377 -1.39316 3.20497
lowerback 1.00356 -0.373602 1.07862
upperback 3.14948 -0.662738 6.89682
thorax 2.76672 -0.40855 6.56857
lowerneck -10.303 -10.6928 -17.7034
upperneck 33.2812 -15.5251 10.5833
head 15.8699 -7.62274 4.74026
rclavicle 2.37548e-014 -6.04305e-014
rhumerus 16.8067 4.63654 -34.8169
rradius 74.8251
rwrist 21.4002
rhand 12.9693 23.125
rfingers 7.12502
rthumb 37.9369 -2.69134
lclavicle 2.37548e-014 -6.04305e-014
lhumerus 55.1284 17.6047 17.1642
lradius 71.9951
lwrist 13.8342
lhand 21.3824 25.5223
lfingers 7.12502
lthumb 45.8206 48.6911
rfemur -3.8575 2.90129 11.7626
rtibia 37.4743
rfoot -28.5289 -3.46353
rtoes -21.1129
lfemur -2.50541 -4.30032 -24.7082
ltibia 36.2186
lfoot -23.8423 0.608984
ltoes -12.5847
2061
root 0.745833 16.5943 -0.156114 -8.26363 -0.995509 3.19715
lowerback 0.895354 -0.397275 1.13186
upperback 3.10673 -0.698331 6.95984
thorax 2.78779 -0.425396 6.60442
lowerneck -9.96415 -10.6237 -17.7922
upperneck 33.0232 -15.5085 10.8254
head 15.6981 -7.61079 4.87329
rclavicle 1.78906e-015 -1.59028e-014
rhumerus 17.0851 4.6977 -34.7033
rradius 74.7893
rwrist 21.3172
rhand 13.0093 23.0522
rfingers 7.12502
rthumb 37.9747 -2.75395
lclavicle 1.78906e-015 -1.59028e-014
lhumerus 55.1248 17.4089 17.4132
lradius 72.0063
lwrist 13.642
lhand 21.6891 25.7501
lfingers 7.12502
lthumb 46.1052 48.8007
rfemur -3.74518 2.78828 11.7847
rtibia 37.5308
rfoot -28.5317 -3.76183
rtoes -21.1216
lfemur -2.57357 -4.42625 -24.6828
ltibia 36.3167
lfoot -23.786 0.366981
ltoes -12.8918
2062
root 0.74164 16.5899 -0.160224 -8.27417 -0.528776 3.28591
lowerback 0.797506 -0.448051 1.00983
upperback 3.09711 -0.77033 7.01038
thorax 2.84381 -0.46583 6.72767
lowerneck -10.2658 -10.6431 -17.6747
upperneck 33.3357 -15.4797 10.6299
head 15.8812 -7.59329 4.77164
rclavicle -1.74931e-014 -7.95139e-014
rhumerus 17.6071 4.68443 -34.5505
rradius 74.538
rwrist 21.3203
rhand 12.9626 23.1294
rfingers 7.12502
rthumb 37.9306 -2.68865
lclavicle -1.74931e-014 -7.95139e-014
lhumerus 55.166 17.305 17.7921
lradius 71.9965
lwrist 13.0894
lhand 21.6803 25.455
lfingers 7.12502
lthumb 46.0971 48.509
rfemur -3.64574 2.68102 11.7056
rtibia 37.5863
rfoot -28.6034 -3.98964
rtoes -21.1157
lfemur -2.66855 -4.59799 -24.7725
ltibia 36.4082
lfoot -23.7348 0.0278896
ltoes -12.2906
2063
root 0.735287 16.5857 -0.16423 -8.33778 -0.0420008 3.23465
lowerback 0.779141 -0.477498 1.04089
upperback 3.09262 -0.811056 7.06743
thorax 2.8549 -0.48607 6.77045
lowerneck -10.5874 -10.7254 -17.6782
upperneck 33.701 -15.5597 10.5331
head 16.1468 -7.62429 4.70988
rclavicle 9.93923e-016 -2.54444e-014
rhumerus 18.0161 4.59898 -34.3788
rradius 74.3026
rwrist 21.4108
rhand 12.7843 23.138
rfingers 7.12502
rthumb 37.7622 -2.72554
lclavicle 9.93923e-016 -2.54444e-014
lhumerus 55.3162 17.1152 18.218
lradius 71.9178
lwrist 12.5331
lhand 21.7601 25.1913
lfingers 7.12502
lthumb 46.1711 48.2143
rfemur -3.47128 2.5603 11.8096
rtibia 37.6249
rfoot -28.6064 -4.36567
rtoes -21.3253
lfemur -2.72147 -4.63482 -24.655
ltibia 36.5101
lfoot -23.678 -0.428506
ltoes -12.2174
2064
root 0.728213 16.5861 -0.16758 -8.37907 0.405863 3.09368
lowerback 0.717883 -0.52125 1.1367
upperback 3.08129 -0.873977 7.14406
thorax 2.88507 -0.516253 6.79631
lowerneck -10.6545 -10.7336 -17.6776
upperneck 33.697 -15.5675 10.564
head 16.1661 -7.61938 4.71898
rclavicle -1.49089e-015 2.8625e-014
rhumerus 18.3738 4.57565 -34.2128
rradius 74.2751
rwrist 21.4397
rhand 12.7515 23.0852
rfingers 7.12502
rthumb 37.7311 -2.78669
lclavicle -1.49089e-015 2.8625e-014
lhumerus 55.3273 16.9401 18.3943
lradius 71.7532
lwrist 12.4294
lhand 21.689 24.982
lfingers 7.12502
lthumb 46.1052 48.0326
rfemur -3.31629 2.49848 12.0344
rtibia 37.6508
rfoot -28.5806 -4.76545
rtoes -21.2324
lfemur -2.75506 -4.71894 -24.4416
ltibia 36.559
lfoot -23.6158 -0.79888
ltoes -12.4252
2065
root 0.721986 16.585 -0.16741 -8.42623 0.807354 3.00901
lowerback 0.585035 -0.604585 1.1338
upperback 3.07403 -0.992884 7.18668
thorax 2.96712 -0.577455 6.84093
lowerneck -10.7873 -10.6902 -17.4807
upperneck 33.8295 -15.4876 10.419
head 16.2069 -7.57246 4.63928
rclavicle -1.37161e-014 3.81667e-014
rhumerus 18.7787 4.67896 -34.1134
rradius 74.301
rwrist 21.4614
rhand 12.7126 22.9512
rfingers 7.12502
rthumb 37.6944 -2.93057
lclavicle -1.37161e-014 3.81667e-014
lhumerus 55.2082 16.812 18.3932
lradius 71.6879
lwrist 12.3269
lhand 21.6833 25.0474
lfingers 7.12502
lthumb 46.0999 48.1003
rfemur -3.14126 2.38679 12.1669
rtibia 37.6784
rfoot -28.5955 -5.10335
rtoes -21.2858
lfemur -2.71016 -4.86531 -24.3188
ltibia 36.5308
lfoot -23.5707 -1.1674
ltoes -11.8562
2066
root 0.717532 16.5807 -0.16181 -8.56546 1.21912 3.25548
lowerback 0.527074 -0.630349 0.827908
upperback 3.07205 -1.02519 7.13885
thorax 3.00608 -0.60139 6.96503
lowerneck -10.8971 -10.7269 -17.3977
upperneck 34.0185 -15.5129 10.2675
head 16.3065 -7.58487 4.55404
rclavicle -9.64106e-015 9.85972e-014
rhumerus 19.0663 4.78435 -33.824
rradius 74.3294
rwrist 21.299
rhand 12.6911 22.822
rfingers 7.12502
rthumb 37.6741 -3.06513
lclavicle -9.64106e-015 9.85972e-014
lhumerus 55.1759 16.6026 18.6477
lradius 71.7037
lwrist 12.0773
lhand 21.8005 25.1457
lfingers 7.12502
lthumb 46.2085 48.1528
rfemur -2.83959 2.19557 11.8679
rtibia 37.6952
rfoot -28.7208 -5.21828
rtoes -21.416
lfemur -2.49845 -4.97449 -24.6035
ltibia 36.4325
lfoot -23.5195 -1.50435
ltoes -11.2102
2067
root 0.712231 16.5758 -0.157601 -8.74025 1.6909 3.62323
lowerback 0.583651 -0.606114 0.38217
upperback 3.05306 -0.981444 7.07668
thorax 2.95602 -0.589054 7.15707
lowerneck -10.8466 -10.8145 -17.5214
upperneck 34.0298 -15.6428 10.3149
head 16.3482 -7.64875 4.56893
rclavicle 8.74653e-015 6.99722e-014
rhumerus 19.2775 4.77249 -33.4749
rradius 74.3914
rwrist 21.2504
rhand 12.7159 22.6111
rfingers 7.12502
rthumb 37.6975 -3.26979
lclavicle 8.74653e-015 6.99722e-014
lhumerus 55.307 16.2884 19.0403
lradius 71.5799
lwrist 12.1327
lhand 21.6291 25.0714
lfingers 7.12502
lthumb 46.0496 48.1453
rfemur -2.50785 1.9423 11.4272
rtibia 37.7185
rfoot -28.7835 -5.39578
rtoes -21.4438
lfemur -2.26775 -5.11563 -25.0321
ltibia 36.331
lfoot -23.5002 -1.67995
ltoes -11.8631
2068
root 0.704434 16.5756 -0.157059 -8.83321 2.10511 3.67619
lowerback 0.583097 -0.585546 0.321273
upperback 2.9998 -0.947846 7.03404
thorax 2.89665 -0.570815 7.14644
lowerneck -10.7273 -10.8649 -17.6183
upperneck 33.9982 -15.7439 10.4036
head 16.3476 -7.69607 4.60649
rclavicle -1.98785e-015 1.59028e-014
rhumerus 19.6308 4.61709 -33.3488
rradius 74.3344
rwrist 21.3309
rhand 12.8128 22.5151
rfingers 7.12502
rthumb 37.7891 -3.34121
lclavicle -1.98785e-015 1.59028e-014
lhumerus 55.5135 15.992 19.3458
lradius 71.3997
lwrist 12.2804
lhand 21.643 25.1414
lfingers 7.12502
lthumb 46.0624 48.2099
rfemur -2.28356 1.79051 11.3896
rtibia 37.7236
rfoot -28.8419 -5.59335
rtoes -21.3745
lfemur -2.18084 -5.28836 -25.0854
ltibia 36.2697
lfoot -23.4391 -1.78999
ltoes -12.3071
